<mxfile host="app.diagrams.net" agent="Mozilla/5.0 (Windows NT 10.0; Win64; x64) AppleWebKit/537.36 (KHTML, like Gecko) Chrome/127.0.0.0 Safari/537.36 Edg/127.0.0.0" version="24.7.6">
  <diagram name="Page-1" id="19m5qqxgm11H0rG_z2qT">
    <mxGraphModel dx="786" dy="475" grid="1" gridSize="10" guides="1" tooltips="1" connect="1" arrows="1" fold="1" page="1" pageScale="1" pageWidth="850" pageHeight="1100" math="0" shadow="0">
      <root>
        <mxCell id="0" />
        <mxCell id="1" parent="0" />
        <mxCell id="jaP4r8Y7Crs8jdCMtJEt-32" style="edgeStyle=orthogonalEdgeStyle;rounded=0;orthogonalLoop=1;jettySize=auto;html=1;exitX=0.5;exitY=0.5;exitDx=0;exitDy=20;exitPerimeter=0;entryX=0.5;entryY=0;entryDx=0;entryDy=0;" edge="1" parent="1" source="jaP4r8Y7Crs8jdCMtJEt-33" target="jaP4r8Y7Crs8jdCMtJEt-59">
          <mxGeometry relative="1" as="geometry" />
        </mxCell>
        <mxCell id="jaP4r8Y7Crs8jdCMtJEt-33" value="Start" style="html=1;dashed=0;whiteSpace=wrap;shape=mxgraph.dfd.start;fontSize=11;" vertex="1" parent="1">
          <mxGeometry x="184.5" y="70" width="160" height="40" as="geometry" />
        </mxCell>
        <mxCell id="jaP4r8Y7Crs8jdCMtJEt-34" style="edgeStyle=orthogonalEdgeStyle;rounded=0;orthogonalLoop=1;jettySize=auto;html=1;exitX=0.5;exitY=1;exitDx=0;exitDy=0;entryX=0.5;entryY=0;entryDx=0;entryDy=0;" edge="1" parent="1" source="jaP4r8Y7Crs8jdCMtJEt-35" target="jaP4r8Y7Crs8jdCMtJEt-40">
          <mxGeometry relative="1" as="geometry" />
        </mxCell>
        <mxCell id="jaP4r8Y7Crs8jdCMtJEt-35" value="&quot;User Migration Process&quot;" style="shape=parallelogram;perimeter=parallelogramPerimeter;whiteSpace=wrap;html=1;fixedSize=1;fontSize=11;" vertex="1" parent="1">
          <mxGeometry x="164.19" y="200" width="200.62" height="50" as="geometry" />
        </mxCell>
        <mxCell id="jaP4r8Y7Crs8jdCMtJEt-36" style="edgeStyle=orthogonalEdgeStyle;rounded=0;orthogonalLoop=1;jettySize=auto;html=1;exitX=1;exitY=0.5;exitDx=0;exitDy=0;entryX=1;entryY=0.5;entryDx=0;entryDy=0;" edge="1" parent="1" source="jaP4r8Y7Crs8jdCMtJEt-40" target="jaP4r8Y7Crs8jdCMtJEt-35">
          <mxGeometry relative="1" as="geometry">
            <Array as="points">
              <mxPoint x="387" y="305" />
              <mxPoint x="387" y="225" />
            </Array>
          </mxGeometry>
        </mxCell>
        <mxCell id="jaP4r8Y7Crs8jdCMtJEt-37" value="&lt;font style=&quot;font-size: 10px;&quot;&gt;Yes&lt;/font&gt;" style="edgeLabel;html=1;align=center;verticalAlign=middle;resizable=0;points=[];" vertex="1" connectable="0" parent="jaP4r8Y7Crs8jdCMtJEt-36">
          <mxGeometry x="-0.618" relative="1" as="geometry">
            <mxPoint as="offset" />
          </mxGeometry>
        </mxCell>
        <mxCell id="jaP4r8Y7Crs8jdCMtJEt-38" style="edgeStyle=orthogonalEdgeStyle;rounded=0;orthogonalLoop=1;jettySize=auto;html=1;exitX=0.5;exitY=1;exitDx=0;exitDy=0;entryX=0.5;entryY=0;entryDx=0;entryDy=0;" edge="1" parent="1" source="jaP4r8Y7Crs8jdCMtJEt-40" target="jaP4r8Y7Crs8jdCMtJEt-42">
          <mxGeometry relative="1" as="geometry" />
        </mxCell>
        <mxCell id="jaP4r8Y7Crs8jdCMtJEt-39" value="&lt;font style=&quot;font-size: 10px;&quot;&gt;No&lt;/font&gt;" style="edgeLabel;html=1;align=center;verticalAlign=middle;resizable=0;points=[];" vertex="1" connectable="0" parent="jaP4r8Y7Crs8jdCMtJEt-38">
          <mxGeometry x="-0.0333" relative="1" as="geometry">
            <mxPoint as="offset" />
          </mxGeometry>
        </mxCell>
        <mxCell id="jaP4r8Y7Crs8jdCMtJEt-40" value="Empty Load File?" style="rhombus;whiteSpace=wrap;html=1;fontSize=11;spacingTop=2;" vertex="1" parent="1">
          <mxGeometry x="208.88" y="270" width="111.25" height="70" as="geometry" />
        </mxCell>
        <mxCell id="jaP4r8Y7Crs8jdCMtJEt-41" style="edgeStyle=orthogonalEdgeStyle;rounded=0;orthogonalLoop=1;jettySize=auto;html=1;exitX=0.5;exitY=1;exitDx=0;exitDy=0;entryX=0.5;entryY=0;entryDx=0;entryDy=0;" edge="1" parent="1" source="jaP4r8Y7Crs8jdCMtJEt-42" target="jaP4r8Y7Crs8jdCMtJEt-44">
          <mxGeometry relative="1" as="geometry" />
        </mxCell>
        <mxCell id="jaP4r8Y7Crs8jdCMtJEt-42" value="CHECK EVERY ITEM LINE IN LOAD FILE" style="shape=process;whiteSpace=wrap;html=1;backgroundOutline=1;fontSize=11;size=0;" vertex="1" parent="1">
          <mxGeometry x="155.60000000000002" y="380" width="217.81" height="50" as="geometry" />
        </mxCell>
        <mxCell id="jaP4r8Y7Crs8jdCMtJEt-43" style="edgeStyle=orthogonalEdgeStyle;rounded=0;orthogonalLoop=1;jettySize=auto;html=1;exitX=0.5;exitY=1;exitDx=0;exitDy=0;entryX=0.5;entryY=0;entryDx=0;entryDy=0;" edge="1" parent="1" source="jaP4r8Y7Crs8jdCMtJEt-44" target="jaP4r8Y7Crs8jdCMtJEt-46">
          <mxGeometry relative="1" as="geometry" />
        </mxCell>
        <mxCell id="jaP4r8Y7Crs8jdCMtJEt-44" value="FETCHING OF DATA IMPORTED" style="shape=process;whiteSpace=wrap;html=1;backgroundOutline=1;fontSize=11;size=0;" vertex="1" parent="1">
          <mxGeometry x="155.60000000000002" y="450" width="217.81" height="50" as="geometry" />
        </mxCell>
        <mxCell id="jaP4r8Y7Crs8jdCMtJEt-45" style="edgeStyle=orthogonalEdgeStyle;rounded=0;orthogonalLoop=1;jettySize=auto;html=1;exitX=0.5;exitY=1;exitDx=0;exitDy=0;entryX=0.5;entryY=0;entryDx=0;entryDy=0;" edge="1" parent="1" source="jaP4r8Y7Crs8jdCMtJEt-46" target="jaP4r8Y7Crs8jdCMtJEt-51">
          <mxGeometry relative="1" as="geometry" />
        </mxCell>
        <mxCell id="jaP4r8Y7Crs8jdCMtJEt-46" value="Z_DMC_MIG_CLASSIFICATION_UPD" style="shape=process;whiteSpace=wrap;html=1;backgroundOutline=1;fontSize=11;size=0;" vertex="1" parent="1">
          <mxGeometry x="155.60000000000002" y="520" width="217.81" height="50" as="geometry" />
        </mxCell>
        <mxCell id="jaP4r8Y7Crs8jdCMtJEt-47" style="edgeStyle=orthogonalEdgeStyle;rounded=0;orthogonalLoop=1;jettySize=auto;html=1;entryX=0.5;entryY=0;entryDx=0;entryDy=0;" edge="1" parent="1" source="jaP4r8Y7Crs8jdCMtJEt-51" target="jaP4r8Y7Crs8jdCMtJEt-53">
          <mxGeometry relative="1" as="geometry">
            <Array as="points">
              <mxPoint x="187" y="625" />
            </Array>
          </mxGeometry>
        </mxCell>
        <mxCell id="jaP4r8Y7Crs8jdCMtJEt-48" value="&lt;font style=&quot;font-size: 10px;&quot;&gt;Yes&lt;/font&gt;" style="edgeLabel;html=1;align=center;verticalAlign=middle;resizable=0;points=[];" vertex="1" connectable="0" parent="jaP4r8Y7Crs8jdCMtJEt-47">
          <mxGeometry x="0.2976" y="-1" relative="1" as="geometry">
            <mxPoint as="offset" />
          </mxGeometry>
        </mxCell>
        <mxCell id="jaP4r8Y7Crs8jdCMtJEt-49" style="edgeStyle=orthogonalEdgeStyle;rounded=0;orthogonalLoop=1;jettySize=auto;html=1;exitX=1;exitY=0.5;exitDx=0;exitDy=0;entryX=0.5;entryY=0;entryDx=0;entryDy=0;" edge="1" parent="1" source="jaP4r8Y7Crs8jdCMtJEt-51" target="jaP4r8Y7Crs8jdCMtJEt-55">
          <mxGeometry relative="1" as="geometry" />
        </mxCell>
        <mxCell id="jaP4r8Y7Crs8jdCMtJEt-50" value="&lt;font style=&quot;font-size: 10px;&quot;&gt;No&lt;/font&gt;" style="edgeLabel;html=1;align=center;verticalAlign=middle;resizable=0;points=[];" vertex="1" connectable="0" parent="jaP4r8Y7Crs8jdCMtJEt-49">
          <mxGeometry x="0.2916" y="1" relative="1" as="geometry">
            <mxPoint as="offset" />
          </mxGeometry>
        </mxCell>
        <mxCell id="jaP4r8Y7Crs8jdCMtJEt-51" value="Error?" style="rhombus;whiteSpace=wrap;html=1;fontSize=11;spacingTop=2;" vertex="1" parent="1">
          <mxGeometry x="208.88" y="590" width="111.25" height="70" as="geometry" />
        </mxCell>
        <mxCell id="jaP4r8Y7Crs8jdCMtJEt-52" style="edgeStyle=orthogonalEdgeStyle;rounded=0;orthogonalLoop=1;jettySize=auto;html=1;exitX=0;exitY=0.5;exitDx=0;exitDy=0;entryX=0;entryY=0.5;entryDx=0;entryDy=0;" edge="1" parent="1" source="jaP4r8Y7Crs8jdCMtJEt-53" target="jaP4r8Y7Crs8jdCMtJEt-42">
          <mxGeometry relative="1" as="geometry" />
        </mxCell>
        <mxCell id="jaP4r8Y7Crs8jdCMtJEt-53" value="ROLLBACK WORK" style="shape=process;whiteSpace=wrap;html=1;backgroundOutline=1;fontSize=11;size=0;" vertex="1" parent="1">
          <mxGeometry x="127" y="680" width="120" height="50" as="geometry" />
        </mxCell>
        <mxCell id="jaP4r8Y7Crs8jdCMtJEt-54" style="edgeStyle=orthogonalEdgeStyle;rounded=0;orthogonalLoop=1;jettySize=auto;html=1;exitX=0.5;exitY=1;exitDx=0;exitDy=0;entryX=0.5;entryY=0;entryDx=0;entryDy=0;" edge="1" parent="1" source="jaP4r8Y7Crs8jdCMtJEt-55" target="jaP4r8Y7Crs8jdCMtJEt-56">
          <mxGeometry relative="1" as="geometry" />
        </mxCell>
        <mxCell id="jaP4r8Y7Crs8jdCMtJEt-55" value="COMMIT / SAVE TO DATABASE" style="shape=process;whiteSpace=wrap;html=1;backgroundOutline=1;fontSize=11;size=0;" vertex="1" parent="1">
          <mxGeometry x="287" y="680" width="120" height="50" as="geometry" />
        </mxCell>
        <mxCell id="jaP4r8Y7Crs8jdCMtJEt-56" value="Migration Successful" style="shape=process;whiteSpace=wrap;html=1;backgroundOutline=1;fontSize=11;size=0;" vertex="1" parent="1">
          <mxGeometry x="155.60000000000002" y="770" width="217.81" height="50" as="geometry" />
        </mxCell>
        <mxCell id="jaP4r8Y7Crs8jdCMtJEt-57" value="End" style="html=1;dashed=0;whiteSpace=wrap;shape=mxgraph.dfd.start;fontSize=11;" vertex="1" parent="1">
          <mxGeometry x="184.5" y="840" width="160" height="40" as="geometry" />
        </mxCell>
        <mxCell id="jaP4r8Y7Crs8jdCMtJEt-58" style="edgeStyle=orthogonalEdgeStyle;rounded=0;orthogonalLoop=1;jettySize=auto;html=1;exitX=0.5;exitY=1;exitDx=0;exitDy=0;entryX=0.5;entryY=0;entryDx=0;entryDy=0;" edge="1" parent="1" source="jaP4r8Y7Crs8jdCMtJEt-59" target="jaP4r8Y7Crs8jdCMtJEt-35">
          <mxGeometry relative="1" as="geometry" />
        </mxCell>
        <mxCell id="jaP4r8Y7Crs8jdCMtJEt-59" value="Proceed to Fiori and Access &quot;Migrate Your Data&quot; App for the Migration Cockpit&amp;nbsp;&lt;div&gt;process&lt;/div&gt;" style="shape=process;whiteSpace=wrap;html=1;backgroundOutline=1;fontSize=11;size=0;" vertex="1" parent="1">
          <mxGeometry x="155.60000000000002" y="130" width="217.81" height="50" as="geometry" />
        </mxCell>
        <mxCell id="jaP4r8Y7Crs8jdCMtJEt-60" style="edgeStyle=orthogonalEdgeStyle;rounded=0;orthogonalLoop=1;jettySize=auto;html=1;exitX=0.5;exitY=1;exitDx=0;exitDy=0;entryX=0.5;entryY=0.5;entryDx=0;entryDy=-20;entryPerimeter=0;" edge="1" parent="1" source="jaP4r8Y7Crs8jdCMtJEt-56" target="jaP4r8Y7Crs8jdCMtJEt-57">
          <mxGeometry relative="1" as="geometry" />
        </mxCell>
        <mxCell id="jaP4r8Y7Crs8jdCMtJEt-61" value="" style="endArrow=none;dashed=1;html=1;rounded=0;" edge="1" parent="1">
          <mxGeometry width="50" height="50" relative="1" as="geometry">
            <mxPoint x="90" y="350" as="sourcePoint" />
            <mxPoint x="440" y="350" as="targetPoint" />
            <Array as="points">
              <mxPoint x="440" y="350" />
              <mxPoint x="80" y="350" />
              <mxPoint x="80" y="550" />
              <mxPoint x="80" y="740" />
              <mxPoint x="440" y="740" />
            </Array>
          </mxGeometry>
        </mxCell>
        <mxCell id="jaP4r8Y7Crs8jdCMtJEt-62" value="Development Process" style="text;html=1;align=center;verticalAlign=middle;resizable=0;points=[];autosize=1;strokeColor=none;fillColor=none;fontSize=10;" vertex="1" parent="1">
          <mxGeometry x="75" y="320" width="120" height="30" as="geometry" />
        </mxCell>
      </root>
    </mxGraphModel>
  </diagram>
</mxfile>
